#!OML:ASF E:\Steps\Project 1\Capture day 1\Session 2\Subject.ASF
:FULLY-SPECIFIED
:DEGREES
600
root 12.4443 18.0783 8.26969 -153.162 5.18536 175.733
lowerback -25.486 -4.23951 -4.4348
upperback -2.42006 -3.9043 1.41955
thorax 11.9324 -1.82067 2.82799
lowerneck -0.973313 0.162995 -2.14491
upperneck 18.1519 1.11943 2.34442
head 5.60407 0.999758 1.19469
rclavicle 1.88845e-015 -1.31198e-014
rhumerus -45.3484 -13.1759 -78.8777
rradius 33.794
rwrist -5.48774
rhand -8.59703 -49.5036
rfingers 7.12502
rthumb 17.3343 -438.751
lclavicle 1.88845e-015 -1.31198e-014
lhumerus -31.5044 2.03923 82.4473
lradius 27.7415
lwrist -2.10429
lhand -23.1618 -14.0319
lfingers 7.12502
lthumb 3.28681 15.9225
rfemur -27.5574 6.52062 17.645
rtibia 13.1812
rfoot -21.4126 -5.7168
rtoes -38.1671
lfemur -26.4798 -8.13289 -24.5459
ltibia 9.97838
lfoot -7.60668 0.428494
ltoes -31.6902
601
root 12.438 18.0783 8.25991 -153.261 5.10323 175.859
lowerback -25.6985 -4.17265 -4.3068
upperback -2.32875 -3.84476 1.39527
thorax 12.1356 -1.79202 2.73891
lowerneck -1.13249 0.149118 -2.05253
upperneck 18.0083 1.06913 2.34441
head 5.58761 0.971292 1.17534
rclavicle 2.42517e-014 4.77083e-015
rhumerus -45.1293 -13.5275 -78.8697
rradius 33.8388
rwrist -5.45757
rhand -8.88507 -49.4082
rfingers 7.12502
rthumb 17.0571 -438.679
lclavicle 2.42517e-014 4.77083e-015
lhumerus -31.1206 1.67768 82.5804
lradius 27.4308
lwrist -2.22701
lhand -23.4305 -14.4113
lfingers 7.12502
lthumb 3.02735 15.5469
rfemur -27.2561 6.66594 17.7631
rtibia 12.9233
rfoot -21.3109 -5.85568
rtoes -38.0079
lfemur -26.3452 -7.95925 -24.4795
ltibia 10.0376
lfoot -7.70261 0.285681
ltoes -32.9118
602
root 12.4316 18.0768 8.25263 -153.227 5.04416 175.902
lowerback -25.9985 -4.13671 -4.26071
upperback -2.35176 -3.77709 1.36243
thorax 12.2585 -1.75112 2.69123
lowerneck -1.12684 0.0699497 -1.91373
upperneck 17.9878 0.956986 2.30551
head 5.58345 0.923296 1.13406
rclavicle -2.6339e-014 2.94201e-014
rhumerus -45.0415 -13.9575 -78.7392
rradius 33.8377
rwrist -5.33432
rhand -8.94669 -49.25
rfingers 7.12502
rthumb 16.9978 -438.526
lclavicle -2.6339e-014 2.94201e-014
lhumerus -30.8934 1.41537 82.7017
lradius 27.1897
lwrist -2.37749
lhand -23.4654 -14.5952
lfingers 7.12502
lthumb 2.99368 15.3635
rfemur -27.1704 6.75094 17.7758
rtibia 12.7656
rfoot -21.2667 -5.94432
rtoes -37.9155
lfemur -26.3467 -7.89186 -24.4766
ltibia 10.0403
lfoot -7.69514 0.183199
ltoes -33.2287
603
root 12.4247 18.0728 8.2453 -153.181 5.01416 175.848
lowerback -26.2745 -4.15864 -4.32622
upperback -2.45231 -3.74382 1.33561
thorax 12.2894 -1.72469 2.70527
lowerneck -0.966318 -0.000810017 -1.84806
upperneck 18.0519 0.879814 2.27142
head 5.57835 0.895774 1.10891
rclavicle 1.86858e-014 -1.31198e-014
rhumerus -45.1307 -14.1743 -78.609
rradius 33.9292
rwrist -5.30769
rhand -8.93409 -49.8927
rfingers 7.12502
rthumb 17.0099 -439.168
lclavicle 1.86858e-014 -1.31198e-014
lhumerus -30.896 1.36852 82.8042
lradius 27.1347
lwrist -2.62251
lhand -23.1682 -14.3088
lfingers 7.12502
lthumb 3.28067 15.6457
rfemur -27.1553 6.72544 17.6886
rtibia 12.7138
rfoot -21.2976 -5.92318
rtoes -37.8261
lfemur -26.3075 -7.93844 -24.5733
ltibia 9.90054
lfoot -7.63828 0.103252
ltoes -32.4549
604
root 12.4187 18.0701 8.24386 -153.121 4.86609 175.814
lowerback -26.4393 -4.26618 -4.42635
upperback -2.53488 -3.83556 1.38898
thorax 12.3009 -1.76338 2.78688
lowerneck -0.928097 0.0127822 -1.87944
upperneck 18.0831 0.908116 2.26219
head 5.58102 0.909613 1.113
rclavicle 6.1822e-014 2.22639e-014
rhumerus -45.0682 -14.1424 -78.5391
rradius 34.0063
rwrist -5.37398
rhand -9.13817 -50.1435
rfingers 7.12502
rthumb 16.8134 -439.436
lclavicle 6.1822e-014 2.22639e-014
lhumerus -30.8728 1.31819 82.9762
lradius 27.0917
lwrist -2.61543
lhand -22.8809 -14.1475
lfingers 7.12502
lthumb 3.55814 15.8026
rfemur -27.1573 6.79805 17.6186
rtibia 12.6531
rfoot -21.3444 -6.05596
rtoes -37.5192
lfemur -26.3223 -7.79508 -24.6649
ltibia 9.78067
lfoot -7.54854 -0.25033
ltoes -32.4654
605
root 12.4144 18.0694 8.24617 -153.019 4.72077 175.835
lowerback -26.5736 -4.3099 -4.45541
upperback -2.53377 -3.87293 1.3962
thorax 12.3799 -1.78032 2.79353
lowerneck -1.21292 0.0234206 -1.77393
upperneck 17.9741 0.887302 2.24924
head 5.59616 0.893255 1.08981
rclavicle -1.61513e-014 1.98785e-015
rhumerus -44.6879 -14.361 -78.522
rradius 33.895
rwrist -5.32083
rhand -9.34044 -49.6888
rfingers 7.12502
rthumb 16.6187 -438.997
lclavicle -1.61513e-014 1.98785e-015
lhumerus -30.56 1.04696 83.1307
lradius 26.9089
lwrist -2.4494
lhand -22.8708 -14.2967
lfingers 7.12502
lthumb 3.56785 15.6532
rfemur -27.2679 6.96573 17.5953
rtibia 12.6773
rfoot -21.3419 -6.40127
rtoes -37.6036
lfemur -26.4271 -7.53659 -24.6931
ltibia 9.7261
lfoot -7.44994 -0.626685
ltoes -33.2648
606
root 12.409 18.0663 8.24566 -152.907 4.61545 175.842
lowerback -26.6914 -4.31707 -4.46419
upperback -2.60092 -3.85462 1.37532
thorax 12.3621 -1.76264 2.78023
lowerneck -1.42705 -0.0151531 -1.72845
upperneck 17.8363 0.802685 2.24837
head 5.59132 0.843598 1.07651
rclavicle -4.72114e-015 -4.77083e-015
rhumerus -44.5094 -14.5395 -78.5267
rradius 33.8998
rwrist -5.43538
rhand -9.25177 -49.804
rfingers 7.12502
rthumb 16.7041 -439.105
lclavicle -4.72114e-015 -4.77083e-015
lhumerus -30.2958 0.927116 83.2465
lradius 26.6979
lwrist -2.48503
lhand -22.8226 -14.2034
lfingers 7.12502
lthumb 3.61438 15.7457
rfemur -27.4046 7.07495 17.5556
rtibia 12.7436
rfoot -21.3338 -6.75658
rtoes -37.9268
lfemur -26.5554 -7.4957 -24.6967
ltibia 9.74896
lfoot -7.44653 -0.697938
ltoes -33.608
607
root 12.401 18.0586 8.23211 -152.832 4.46756 175.864
lowerback -27.0059 -4.47386 -4.46499
upperback -2.79878 -4.01594 1.48762
thorax 12.3228 -1.8158 2.84439
lowerneck -1.03562 0.0584242 -1.99477
upperneck 17.8983 0.946692 2.28265
head 5.54011 0.911651 1.13837
rclavicle 2.12203e-014 -3.02153e-014
rhumerus -44.7342 -14.2405 -78.4054
rradius 33.9957
rwrist -5.59129
rhand -8.90573 -50.0917
rfingers 7.12502
rthumb 17.0372 -439.365
lclavicle 2.12203e-014 -3.02153e-014
lhumerus -30.5178 1.27051 83.3728
lradius 26.5396
lwrist -2.70723
lhand -22.6084 -13.9194
lfingers 7.12502
lthumb 3.82127 16.026
rfemur -27.3367 7.12129 17.5636
rtibia 12.6329
rfoot -21.4178 -6.97759
rtoes -38.0875
lfemur -26.5262 -7.57093 -24.7118
ltibia 9.69258
lfoot -7.49478 -0.720744
ltoes -33.4829
608
root 12.3953 18.0629 8.22923 -153.031 4.50103 175.902
lowerback -26.9754 -4.40771 -4.56266
upperback -2.75725 -3.90168 1.43779
thorax 12.3475 -1.77128 2.88666
lowerneck -1.12483 0.0509239 -1.81664
upperneck 17.8489 0.918423 2.26653
head 5.54103 0.904932 1.10188
rclavicle -1.04362e-015 -9.54166e-015
rhumerus -44.5833 -14.714 -78.2653
rradius 33.9452
rwrist -5.41499
rhand -8.80801 -49.7614
rfingers 7.12502
rthumb 17.1312 -439.026
lclavicle -1.04362e-015 -9.54166e-015
lhumerus -30.2878 0.948687 83.499
lradius 26.3477
lwrist -2.67941
lhand -22.5483 -13.6048
lfingers 7.12502
lthumb 3.87929 16.3396
rfemur -27.074 7.39163 17.5191
rtibia 12.5092
rfoot -21.4077 -7.17877
rtoes -38.0856
lfemur -26.2618 -7.59933 -24.6704
ltibia 9.60522
lfoot -7.5496 -0.634496
ltoes -33.1643
609
root 12.3858 18.0642 8.21317 -153.156 4.44863 176.09
lowerback -27.1161 -4.33033 -4.431
upperback -2.70677 -3.83703 1.45203
thorax 12.4668 -1.73877 2.84611
lowerneck -1.30354 -0.0285732 -1.70045
upperneck 17.7845 0.789765 2.22712
head 5.55456 0.840149 1.06347
rclavicle 2.19657e-014 5.1684e-015
rhumerus -44.3575 -15.1381 -78.1105
rradius 33.8265
rwrist -5.26827
rhand -9.67787 -48.729
rfingers 7.12502
rthumb 16.2938 -438.064
lclavicle 2.19657e-014 5.1684e-015
lhumerus -30.1387 0.721391 83.6703
lradius 26.22
lwrist -2.62605
lhand -22.6683 -13.496
lfingers 7.12502
lthumb 3.76344 16.4505
rfemur -26.709 7.3254 17.7655
rtibia 12.2289
rfoot -21.3395 -7.04828
rtoes -38.273
lfemur -25.9311 -7.58495 -24.509
ltibia 9.37359
lfoot -7.58009 -0.607331
ltoes -33.0488
610
root 12.3764 18.063 8.19857 -153.184 4.31413 176.227
lowerback -27.2095 -4.28025 -4.29847
upperback -2.71532 -3.80023 1.44981
thorax 12.4937 -1.71222 2.77909
lowerneck -1.53662 -0.130857 -1.63901
upperneck 17.8076 0.623357 2.29583
head 5.60459 0.763733 1.06745
rclavicle 2.53947e-014 -9.14409e-015
rhumerus -44.1552 -15.5095 -78.005
rradius 33.6462
rwrist -5.17478
rhand -9.00494 -49.0742
rfingers 7.12502
rthumb 16.9417 -438.355
lclavicle 2.53947e-014 -9.14409e-015
lhumerus -29.9477 0.717195 83.7758
lradius 26.0148
lwrist -2.93034
lhand -22.7322 -13.9551
lfingers 7.12502
lthumb 3.70173 15.9925
rfemur -26.4942 7.1822 17.9662
rtibia 12.0659
rfoot -21.3227 -7.02163
rtoes -38.7093
lfemur -25.7097 -7.53129 -24.4129
ltibia 9.13612
lfoot -7.53117 -0.655116
ltoes -33.4469
611
root 12.3684 18.0584 8.18848 -153.16 4.17389 176.244
lowerback -27.2777 -4.34858 -4.38466
upperback -2.85992 -3.84317 1.52409
thorax 12.3771 -1.72242 2.89997
lowerneck -1.51488 -0.0628952 -1.7651
upperneck 17.9029 0.728228 2.36743
head 5.62789 0.817558 1.11784
rclavicle 1.66979e-014 3.97569e-015
rhumerus -44.1828 -15.3357 -77.924
rradius 33.6097
rwrist -5.41431
rhand -9.05984 -49.4504
rfingers 7.12502
rthumb 16.8888 -438.736
lclavicle 1.66979e-014 3.97569e-015
lhumerus -30.0876 1.04218 83.9188
lradius 25.8733
lwrist -3.55349
lhand -22.9769 -14.7875
lfingers 7.12502
lthumb 3.46536 15.1641
rfemur -26.3785 7.03474 18.0044
rtibia 11.9045
rfoot -21.2994 -7.03887
rtoes -38.7993
lfemur -25.5431 -7.41712 -24.4521
ltibia 8.85752
lfoot -7.40083 -0.876028
ltoes -33.8397
612
root 12.3612 18.0541 8.17957 -153.109 4.01033 176.297
lowerback -27.4052 -4.52672 -4.4734
upperback -3.16944 -4.01046 1.70916
thorax 12.1211 -1.77416 3.10488
lowerneck -1.02304 0.0273013 -2.08762
upperneck 18.0393 0.926985 2.32357
head 5.58206 0.909846 1.16827
rclavicle 7.14134e-014 1.59028e-014
rhumerus -44.5824 -14.6851 -77.8365
rradius 33.8203
rwrist -5.86103
rhand -9.30222 -50.0469
rfingers 7.12502
rthumb 16.6555 -439.352
lclavicle 7.14134e-014 1.59028e-014
lhumerus -30.7556 1.3574 84.1532
lradius 25.9366
lwrist -3.87599
lhand -23.2761 -15.2324
lfingers 7.12502
lthumb 3.17643 14.7237
rfemur -26.2909 6.91983 18.0834
rtibia 11.7236
rfoot -21.2904 -7.02576
rtoes -38.4847
lfemur -25.426 -7.1826 -24.4537
ltibia 8.5914
lfoot -7.30453 -1.27687
ltoes -33.7699
613
root 12.3542 18.0523 8.16984 -153.073 3.87089 176.33
lowerback -27.6818 -4.41811 -4.30306
upperback -2.7993 -3.93876 1.56996
thorax 12.6679 -1.76371 2.85492
lowerneck -2.1237 -0.0545484 -1.96148
upperneck 17.4241 0.673191 2.30044
head 5.58317 0.736077 1.12191
rclavicle -2.23136e-014 0
rhumerus -43.5491 -15.2307 -78.1592
rradius 33.7545
rwrist -5.88122
rhand -9.39108 -50.1593
rfingers 7.12502
rthumb 16.57 -439.472
lclavicle -2.23136e-014 0
lhumerus -29.6976 0.821515 84.2579
lradius 25.8037
lwrist -3.54642
lhand -23.2744 -14.8198
lfingers 7.12502
lthumb 3.17809 15.1363
rfemur -26.1963 6.74681 18.1641
rtibia 11.5931
rfoot -21.3175 -6.90312
rtoes -38.2394
lfemur -25.311 -7.06491 -24.4685
ltibia 8.3602
lfoot -7.27134 -1.54529
ltoes -33.3986
614
root 12.3479 18.0503 8.15988 -153.072 3.84398 176.326
lowerback -28.0831 -4.33142 -4.26914
upperback -2.83833 -3.75649 1.33709
thorax 12.7976 -1.65878 2.62859
lowerneck -1.76024 -0.175296 -1.59146
upperneck 17.4703 0.496213 2.4004
head 5.53927 0.69325 1.08198
rclavicle -3.66261e-014 9.54166e-015
rhumerus -43.6987 -15.7795 -78.201
rradius 33.7043
rwrist -5.79539
rhand -9.35604 -50.3114
rfingers 7.12502
rthumb 16.6037 -439.621
lclavicle -3.66261e-014 9.54166e-015
lhumerus -29.727 -0.0389411 84.252
lradius 25.7723
lwrist -3.10412
lhand -23.1324 -14.1515
lfingers 7.12502
lthumb 3.31526 15.8024
rfemur -26.0952 6.6481 18.1663
rtibia 11.4945
rfoot -21.3825 -6.74443
rtoes -38.1456
lfemur -25.1383 -7.0504 -24.5202
ltibia 8.11347
lfoot -7.21899 -1.61015
ltoes -33.4205
